# Blender v3.0.1 OBJ File: 'witch house _fix Chandelier.blend'
# www.blender.org
mtllib Crystal Low.mtl
o Crystal_Icosphere
v -0.115210 -0.746803 -0.380023
v 0.002268 0.574401 0.517366
v -0.366237 0.395884 -0.499708
v 0.276448 0.345454 -0.588176
v 0.644815 0.345454 0.081161
v -0.111709 1.163214 -0.081161
v 0.111709 -1.163214 0.081161
v 0.004442 -0.586934 0.454929
v 0.444116 -0.586931 0.138204
v -0.432916 -0.720254 -0.006013
v 0.278761 -0.586932 -0.377822
v 0.202256 0.058767 0.622479
v -0.557909 0.391189 0.326621
v -0.654513 -0.058767 -0.000000
v 0.212489 1.050178 0.154382
vt 0.885079 0.699379
vt 0.668633 0.642359
vt 0.772804 0.553716
vt 0.606749 0.292193
vt 0.606749 0.259890
vt 0.438787 0.542783
vt 0.379696 0.333484
vt 0.452309 0.177156
vt 0.210164 0.263873
vt 0.790603 0.288487
vt 0.857456 0.494938
vt 1.000000 0.233182
vt 0.264970 0.386612
vt 0.151198 0.532596
vt 0.021771 0.466421
vt 0.000000 0.134175
vt 0.699794 0.005748
vt 0.843964 0.000000
vt 0.213846 0.142780
vt 0.356496 0.000000
vt 1.000000 0.523266
vt 0.606749 0.020067
vn -0.5374 -0.7403 -0.4040
vn -0.7497 -0.2297 -0.6206
vn 0.8012 -0.1368 0.5826
vn -0.4027 -0.1124 0.9084
vn -0.1455 -0.1346 -0.9802
vn 0.8712 -0.1060 -0.4794
vn 0.6064 0.2953 0.7383
vn -0.4267 0.6028 0.6742
vn -0.8904 0.4068 -0.2042
vn -0.0798 0.4976 -0.8637
vn 0.7554 0.5066 -0.4157
vn 0.5943 0.6083 -0.5261
vn -0.2793 0.6574 0.6999
vn -0.9135 0.3485 -0.2099
vn -0.3392 0.0598 0.9388
vn 0.6084 0.3782 0.6977
vn 0.0942 -0.2189 -0.9712
vn -0.7310 -0.2391 -0.6392
vn -0.7658 -0.2619 0.5873
vn -0.6534 -0.2836 0.7019
vn 0.5446 -0.3630 0.7560
vn 0.9293 -0.2183 -0.2978
vn 0.2664 -0.6466 -0.7149
vn -0.5348 -0.5276 0.6600
vn 0.8452 -0.4607 -0.2708
vn 0.5394 -0.3852 0.7488
usemtl None
s off
f 7/1/1 10/2/1 1/3/1
f 1/3/2 10/2/2 3/4/2
f 9/5/3 5/6/3 12/7/3
f 8/8/4 12/7/4 13/9/4
f 1/3/5 3/4/5 4/10/5
f 11/11/6 4/10/6 5/12/6
f 2/13/7 5/6/7 15/14/7
f 13/9/8 2/13/8 6/15/8
f 3/16/9 13/9/9 6/15/9
f 4/10/10 3/4/10 6/17/10
f 5/12/11 4/10/11 15/18/11
f 15/18/12 4/10/12 6/17/12
f 6/15/13 2/13/13 15/14/13
f 14/19/14 13/9/14 3/16/14
f 13/9/15 12/7/15 2/13/15
f 12/7/16 5/6/16 2/13/16
f 11/11/17 1/3/17 4/10/17
f 3/16/18 10/20/18 14/19/18
f 14/19/19 10/20/19 13/9/19
f 10/20/20 8/8/20 13/9/20
f 8/8/21 9/5/21 12/7/21
f 9/21/22 11/11/22 5/12/22
f 7/1/23 1/3/23 11/11/23
f 7/22/24 8/8/24 10/20/24
f 9/21/25 7/1/25 11/11/25
f 7/22/26 9/5/26 8/8/26
